<svg width="72" height="72" viewBox="0 0 72 72" fill="none" xmlns="http://www.w3.org/2000/svg">
  <rect x="1" y="1" width="70" height="70" stroke="#C9A84C" stroke-width="0.75" opacity="0.35"/>
  <path d="M1 13 L1 1 L13 1" stroke="#C9A84C" stroke-width="1.8" fill="none"/>
  <path d="M59 1 L71 1 L71 13" stroke="#C9A84C" stroke-width="1.8" fill="none"/>
  <path d="M1 59 L1 71 L13 71" stroke="#C9A84C" stroke-width="1.8" fill="none"/>
  <path d="M59 71 L71 71 L71 59" stroke="#C9A84C" stroke-width="1.8" fill="none"/>
  <path d="M15 19 L15 53 L28 53 C34 53 38.5 48.5 38.5 42.5 C38.5 39.8 37.5 37.4 35.8 35.6 C37.5 33.8 38.5 31.4 38.5 28.5 C38.5 22.5 34 19 28 19 Z M21 25 L27 25 C30.3 25 33 27.7 33 31 C33 34.3 30.3 37 27 37 L21 37 Z M21 43 L21 47 L28 47 C31.3 47 34 44.3 34 41 C34 37.7 31.3 37 28 37 L21 37 Z" fill="#C9A84C"/>
  <path d="M42 19 L42 53 L48 53 L48 39 L57.5 53 L65 53 L54 36 L64 19 L56.5 19 L48 33 L48 19 Z" fill="#C9A84C"/>
</svg>
